<?xml version="1.0" encoding="utf-8" standalone="no"?>
<!DOCTYPE svg PUBLIC "-//W3C//DTD SVG 1.1//EN"
  "http://www.w3.org/Graphics/SVG/1.1/DTD/svg11.dtd">
<svg xmlns:xlink="http://www.w3.org/1999/xlink" width="1440pt" height="864pt" viewBox="0 0 1440 864" xmlns="http://www.w3.org/2000/svg" version="1.1">
 <metadata>
  <rdf:RDF xmlns:dc="http://purl.org/dc/elements/1.1/" xmlns:cc="http://creativecommons.org/ns#" xmlns:rdf="http://www.w3.org/1999/02/22-rdf-syntax-ns#">
   <cc:Work>
    <dc:type rdf:resource="http://purl.org/dc/dcmitype/StillImage"/>
    <dc:date>2025-08-12T02:35:34.037440</dc:date>
    <dc:format>image/svg+xml</dc:format>
    <dc:creator>
     <cc:Agent>
      <dc:title>Matplotlib v3.10.3, https://matplotlib.org/</dc:title>
     </cc:Agent>
    </dc:creator>
   </cc:Work>
  </rdf:RDF>
 </metadata>
 <defs>
  <style type="text/css">*{stroke-linejoin: round; stroke-linecap: butt}</style>
 </defs>
 <g id="figure_1">
  <g id="patch_1">
   <path d="M 0 864 
L 1440 864 
L 1440 0 
L 0 0 
z
" style="fill: #ffffff"/>
  </g>
  <g id="axes_1">
   <g id="patch_2">
    <path d="M 724.908392 89.113975 
Q 724.908392 193.983229 724.908392 297.734449 
" clip-path="url(#p60645ff926)" style="fill: none; stroke: #808080; stroke-linecap: round"/>
    <path d="M 726.908392 293.734449 
L 724.908392 297.734449 
L 722.908392 293.734449 
z
" clip-path="url(#p60645ff926)" style="fill: #808080; stroke: #808080; stroke-linecap: round"/>
   </g>
   <g id="patch_3">
    <path d="M 711.767099 318.205248 
Q 424.937352 431.998486 139.146843 545.37943 
" clip-path="url(#p60645ff926)" style="fill: none; stroke: #808080; stroke-linecap: round"/>
    <path d="M 143.602465 545.763406 
L 139.146843 545.37943 
L 142.127397 542.045318 
z
" clip-path="url(#p60645ff926)" style="fill: #808080; stroke: #808080; stroke-linecap: round"/>
   </g>
   <g id="patch_4">
    <path d="M 712.390876 319.574453 
Q 498.603654 432.000977 285.805979 543.907118 
" clip-path="url(#p60645ff926)" style="fill: none; stroke: #808080; stroke-linecap: round"/>
    <path d="M 290.277176 543.815493 
L 285.805979 543.907118 
L 288.415397 540.275185 
z
" clip-path="url(#p60645ff926)" style="fill: #808080; stroke: #808080; stroke-linecap: round"/>
   </g>
   <g id="patch_5">
    <path d="M 713.819627 321.768087 
Q 574.544613 431.999151 436.146276 541.536358 
" clip-path="url(#p60645ff926)" style="fill: none; stroke: #808080; stroke-linecap: round"/>
    <path d="M 440.523979 540.622185 
L 436.146276 541.536358 
L 438.04156 537.485691 
z
" clip-path="url(#p60645ff926)" style="fill: #808080; stroke: #808080; stroke-linecap: round"/>
   </g>
   <g id="patch_6">
    <path d="M 717.435244 325.002244 
Q 650.857501 432.003004 584.870414 538.054488 
" clip-path="url(#p60645ff926)" style="fill: none; stroke: #808080; stroke-linecap: round"/>
    <path d="M 588.681726 535.714852 
L 584.870414 538.054488 
L 585.285493 533.601656 
z
" clip-path="url(#p60645ff926)" style="fill: #808080; stroke: #808080; stroke-linecap: round"/>
   </g>
   <g id="patch_7">
    <path d="M 724.908392 327.130504 
Q 724.908392 431.999758 724.908392 535.750978 
" clip-path="url(#p60645ff926)" style="fill: none; stroke: #808080; stroke-linecap: round"/>
    <path d="M 726.908392 531.750978 
L 724.908392 535.750978 
L 722.908392 531.750978 
z
" clip-path="url(#p60645ff926)" style="fill: #808080; stroke: #808080; stroke-linecap: round"/>
   </g>
   <g id="patch_8">
    <path d="M 732.381922 325.002244 
Q 798.963062 432.003004 864.953524 538.054501 
" clip-path="url(#p60645ff926)" style="fill: none; stroke: #808080; stroke-linecap: round"/>
    <path d="M 864.538343 533.601679 
L 864.953524 538.054501 
L 861.142158 535.714953 
z
" clip-path="url(#p60645ff926)" style="fill: #808080; stroke: #808080; stroke-linecap: round"/>
   </g>
   <g id="patch_9">
    <path d="M 735.934222 321.851619 
Q 873.010908 432.000557 1009.216071 541.449175 
" clip-path="url(#p60645ff926)" style="fill: none; stroke: #808080; stroke-linecap: round"/>
    <path d="M 1007.350782 537.384609 
L 1009.216071 541.449175 
L 1004.845244 540.502667 
z
" clip-path="url(#p60645ff926)" style="fill: #808080; stroke: #808080; stroke-linecap: round"/>
   </g>
   <g id="patch_10">
    <path d="M 737.372514 319.668881 
Q 947.059451 432.000114 1155.760862 543.803392 
" clip-path="url(#p60645ff926)" style="fill: none; stroke: #808080; stroke-linecap: round"/>
    <path d="M 1153.17937 540.151556 
L 1155.760862 543.803392 
L 1151.290498 543.677483 
z
" clip-path="url(#p60645ff926)" style="fill: #808080; stroke: #808080; stroke-linecap: round"/>
   </g>
   <g id="patch_11">
    <path d="M 738.023758 318.281516 
Q 1019.975322 432.000188 1300.890012 545.300659 
" clip-path="url(#p60645ff926)" style="fill: none; stroke: #808080; stroke-linecap: round"/>
    <path d="M 1297.928474 541.949645 
L 1300.890012 545.300659 
L 1296.432278 545.659281 
z
" clip-path="url(#p60645ff926)" style="fill: #808080; stroke: #808080; stroke-linecap: round"/>
   </g>
   <g id="patch_12">
    <path d="M 124.958678 565.147033 
Q 124.958678 670.016287 124.958678 773.767507 
" clip-path="url(#p60645ff926)" style="fill: none; stroke: #808080; stroke-linecap: round"/>
    <path d="M 126.958678 769.767507 
L 124.958678 773.767507 
L 122.958678 769.767507 
z
" clip-path="url(#p60645ff926)" style="fill: #808080; stroke: #808080; stroke-linecap: round"/>
   </g>
   <g id="patch_13">
    <path d="M 272.302632 565.147033 
Q 272.302632 670.016287 272.302632 773.767507 
" clip-path="url(#p60645ff926)" style="fill: none; stroke: #808080; stroke-linecap: round"/>
    <path d="M 274.302632 769.767507 
L 272.302632 773.767507 
L 270.302632 769.767507 
z
" clip-path="url(#p60645ff926)" style="fill: #808080; stroke: #808080; stroke-linecap: round"/>
   </g>
   <g id="patch_14">
    <path d="M 424.178688 565.147033 
Q 424.178688 670.016287 424.178688 773.767507 
" clip-path="url(#p60645ff926)" style="fill: none; stroke: #808080; stroke-linecap: round"/>
    <path d="M 426.178688 769.767507 
L 424.178688 773.767507 
L 422.178688 769.767507 
z
" clip-path="url(#p60645ff926)" style="fill: #808080; stroke: #808080; stroke-linecap: round"/>
   </g>
   <g id="patch_15">
    <path d="M 576.810347 565.147033 
Q 576.810347 670.016287 576.810347 773.767507 
" clip-path="url(#p60645ff926)" style="fill: none; stroke: #808080; stroke-linecap: round"/>
    <path d="M 578.810347 769.767507 
L 576.810347 773.767507 
L 574.810347 769.767507 
z
" clip-path="url(#p60645ff926)" style="fill: #808080; stroke: #808080; stroke-linecap: round"/>
   </g>
   <g id="patch_16">
    <path d="M 724.908392 565.147033 
Q 724.908392 670.016287 724.908392 773.767507 
" clip-path="url(#p60645ff926)" style="fill: none; stroke: #808080; stroke-linecap: round"/>
    <path d="M 726.908392 769.767507 
L 724.908392 773.767507 
L 722.908392 769.767507 
z
" clip-path="url(#p60645ff926)" style="fill: #808080; stroke: #808080; stroke-linecap: round"/>
   </g>
   <g id="patch_17">
    <path d="M 873.013994 565.147033 
Q 873.013994 670.016287 873.013994 773.767507 
" clip-path="url(#p60645ff926)" style="fill: none; stroke: #808080; stroke-linecap: round"/>
    <path d="M 875.013994 769.767507 
L 873.013994 773.767507 
L 871.013994 769.767507 
z
" clip-path="url(#p60645ff926)" style="fill: #808080; stroke: #808080; stroke-linecap: round"/>
   </g>
   <g id="patch_18">
    <path d="M 1021.112039 565.147033 
Q 1021.112039 670.016287 1021.112039 773.767507 
" clip-path="url(#p60645ff926)" style="fill: none; stroke: #808080; stroke-linecap: round"/>
    <path d="M 1023.112039 769.767507 
L 1021.112039 773.767507 
L 1019.112039 769.767507 
z
" clip-path="url(#p60645ff926)" style="fill: #808080; stroke: #808080; stroke-linecap: round"/>
   </g>
   <g id="patch_19">
    <path d="M 1169.210084 565.147033 
Q 1169.210084 670.016287 1169.210084 773.767507 
" clip-path="url(#p60645ff926)" style="fill: none; stroke: #808080; stroke-linecap: round"/>
    <path d="M 1171.210084 769.767507 
L 1169.210084 773.767507 
L 1167.210084 769.767507 
z
" clip-path="url(#p60645ff926)" style="fill: #808080; stroke: #808080; stroke-linecap: round"/>
   </g>
   <g id="patch_20">
    <path d="M 1315.041322 565.147033 
Q 1315.041322 670.016287 1315.041322 773.767507 
" clip-path="url(#p60645ff926)" style="fill: none; stroke: #808080; stroke-linecap: round"/>
    <path d="M 1317.041322 769.767507 
L 1315.041322 773.767507 
L 1313.041322 769.767507 
z
" clip-path="url(#p60645ff926)" style="fill: #808080; stroke: #808080; stroke-linecap: round"/>
   </g>
   <g id="PathCollection_1">
    <defs>
     <path id="C0_0_e866731974" d="M 0 14.142136 
C 3.750538 14.142136 7.347969 12.652031 10 10 
C 12.652031 7.347969 14.142136 3.750538 14.142136 -0 
C 14.142136 -3.750538 12.652031 -7.347969 10 -10 
C 7.347969 -12.652031 3.750538 -14.142136 0 -14.142136 
C -3.750538 -14.142136 -7.347969 -12.652031 -10 -10 
C -12.652031 -7.347969 -14.142136 -3.750538 -14.142136 0 
C -14.142136 3.750538 -12.652031 7.347969 -10 10 
C -7.347969 12.652031 -3.750538 14.142136 0 14.142136 
z
"/>
    </defs>
    <g clip-path="url(#p60645ff926)">
     <use xlink:href="#C0_0_e866731974" x="724.908392" y="74.975207" style="fill: #800026; stroke: #800026; stroke-width: 0.5"/>
    </g>
    <g clip-path="url(#p60645ff926)">
     <use xlink:href="#C0_0_e866731974" x="724.908392" y="312.991736" style="fill: #800026; stroke: #800026; stroke-width: 0.5"/>
    </g>
    <g clip-path="url(#p60645ff926)">
     <use xlink:href="#C0_0_e866731974" x="124.958678" y="551.008264" style="fill: #ffffcc; stroke: #ffffcc; stroke-width: 0.5"/>
    </g>
    <g clip-path="url(#p60645ff926)">
     <use xlink:href="#C0_0_e866731974" x="124.958678" y="789.024793" style="fill: #ffffcc; stroke: #ffffcc; stroke-width: 0.5"/>
    </g>
    <g clip-path="url(#p60645ff926)">
     <use xlink:href="#C0_0_e866731974" x="272.302632" y="551.008264" style="fill: #ffffcc; stroke: #ffffcc; stroke-width: 0.5"/>
    </g>
    <g clip-path="url(#p60645ff926)">
     <use xlink:href="#C0_0_e866731974" x="272.302632" y="789.024793" style="fill: #ffffcc; stroke: #ffffcc; stroke-width: 0.5"/>
    </g>
    <g clip-path="url(#p60645ff926)">
     <use xlink:href="#C0_0_e866731974" x="424.178688" y="551.008264" style="fill: #ffffcc; stroke: #ffffcc; stroke-width: 0.5"/>
    </g>
    <g clip-path="url(#p60645ff926)">
     <use xlink:href="#C0_0_e866731974" x="424.178688" y="789.024793" style="fill: #ffffcc; stroke: #ffffcc; stroke-width: 0.5"/>
    </g>
    <g clip-path="url(#p60645ff926)">
     <use xlink:href="#C0_0_e866731974" x="576.810347" y="551.008264" style="fill: #ffffcc; stroke: #ffffcc; stroke-width: 0.5"/>
    </g>
    <g clip-path="url(#p60645ff926)">
     <use xlink:href="#C0_0_e866731974" x="576.810347" y="789.024793" style="fill: #ffffcc; stroke: #ffffcc; stroke-width: 0.5"/>
    </g>
    <g clip-path="url(#p60645ff926)">
     <use xlink:href="#C0_0_e866731974" x="724.908392" y="551.008264" style="fill: #ffffcc; stroke: #ffffcc; stroke-width: 0.5"/>
    </g>
    <g clip-path="url(#p60645ff926)">
     <use xlink:href="#C0_0_e866731974" x="724.908392" y="789.024793" style="fill: #ffffcc; stroke: #ffffcc; stroke-width: 0.5"/>
    </g>
    <g clip-path="url(#p60645ff926)">
     <use xlink:href="#C0_0_e866731974" x="873.013994" y="551.008264" style="fill: #ffffcc; stroke: #ffffcc; stroke-width: 0.5"/>
    </g>
    <g clip-path="url(#p60645ff926)">
     <use xlink:href="#C0_0_e866731974" x="873.013994" y="789.024793" style="fill: #ffffcc; stroke: #ffffcc; stroke-width: 0.5"/>
    </g>
    <g clip-path="url(#p60645ff926)">
     <use xlink:href="#C0_0_e866731974" x="1021.112039" y="551.008264" style="fill: #ffffcc; stroke: #ffffcc; stroke-width: 0.5"/>
    </g>
    <g clip-path="url(#p60645ff926)">
     <use xlink:href="#C0_0_e866731974" x="1021.112039" y="789.024793" style="fill: #ffffcc; stroke: #ffffcc; stroke-width: 0.5"/>
    </g>
    <g clip-path="url(#p60645ff926)">
     <use xlink:href="#C0_0_e866731974" x="1169.210084" y="551.008264" style="fill: #ffffcc; stroke: #ffffcc; stroke-width: 0.5"/>
    </g>
    <g clip-path="url(#p60645ff926)">
     <use xlink:href="#C0_0_e866731974" x="1169.210084" y="789.024793" style="fill: #ffffcc; stroke: #ffffcc; stroke-width: 0.5"/>
    </g>
    <g clip-path="url(#p60645ff926)">
     <use xlink:href="#C0_0_e866731974" x="1315.041322" y="551.008264" style="fill: #ffffcc; stroke: #ffffcc; stroke-width: 0.5"/>
    </g>
    <g clip-path="url(#p60645ff926)">
     <use xlink:href="#C0_0_e866731974" x="1315.041322" y="789.024793" style="fill: #ffffcc; stroke: #ffffcc; stroke-width: 0.5"/>
    </g>
   </g>
   <g id="text_1">
    <g clip-path="url(#p60645ff926)">
     <!-- calculator -->
     <g transform="translate(705.189642 72.703582) scale(0.08 -0.08)">
      <defs>
       <path id="DejaVuSans-63" d="M 3122 3366 
L 3122 2828 
Q 2878 2963 2633 3030 
Q 2388 3097 2138 3097 
Q 1578 3097 1268 2742 
Q 959 2388 959 1747 
Q 959 1106 1268 751 
Q 1578 397 2138 397 
Q 2388 397 2633 464 
Q 2878 531 3122 666 
L 3122 134 
Q 2881 22 2623 -34 
Q 2366 -91 2075 -91 
Q 1284 -91 818 406 
Q 353 903 353 1747 
Q 353 2603 823 3093 
Q 1294 3584 2113 3584 
Q 2378 3584 2631 3529 
Q 2884 3475 3122 3366 
z
" transform="scale(0.015625)"/>
       <path id="DejaVuSans-61" d="M 2194 1759 
Q 1497 1759 1228 1600 
Q 959 1441 959 1056 
Q 959 750 1161 570 
Q 1363 391 1709 391 
Q 2188 391 2477 730 
Q 2766 1069 2766 1631 
L 2766 1759 
L 2194 1759 
z
M 3341 1997 
L 3341 0 
L 2766 0 
L 2766 531 
Q 2569 213 2275 61 
Q 1981 -91 1556 -91 
Q 1019 -91 701 211 
Q 384 513 384 1019 
Q 384 1609 779 1909 
Q 1175 2209 1959 2209 
L 2766 2209 
L 2766 2266 
Q 2766 2663 2505 2880 
Q 2244 3097 1772 3097 
Q 1472 3097 1187 3025 
Q 903 2953 641 2809 
L 641 3341 
Q 956 3463 1253 3523 
Q 1550 3584 1831 3584 
Q 2591 3584 2966 3190 
Q 3341 2797 3341 1997 
z
" transform="scale(0.015625)"/>
       <path id="DejaVuSans-6c" d="M 603 4863 
L 1178 4863 
L 1178 0 
L 603 0 
L 603 4863 
z
" transform="scale(0.015625)"/>
       <path id="DejaVuSans-75" d="M 544 1381 
L 544 3500 
L 1119 3500 
L 1119 1403 
Q 1119 906 1312 657 
Q 1506 409 1894 409 
Q 2359 409 2629 706 
Q 2900 1003 2900 1516 
L 2900 3500 
L 3475 3500 
L 3475 0 
L 2900 0 
L 2900 538 
Q 2691 219 2414 64 
Q 2138 -91 1772 -91 
Q 1169 -91 856 284 
Q 544 659 544 1381 
z
M 1991 3584 
L 1991 3584 
z
" transform="scale(0.015625)"/>
       <path id="DejaVuSans-74" d="M 1172 4494 
L 1172 3500 
L 2356 3500 
L 2356 3053 
L 1172 3053 
L 1172 1153 
Q 1172 725 1289 603 
Q 1406 481 1766 481 
L 2356 481 
L 2356 0 
L 1766 0 
Q 1100 0 847 248 
Q 594 497 594 1153 
L 594 3053 
L 172 3053 
L 172 3500 
L 594 3500 
L 594 4494 
L 1172 4494 
z
" transform="scale(0.015625)"/>
       <path id="DejaVuSans-6f" d="M 1959 3097 
Q 1497 3097 1228 2736 
Q 959 2375 959 1747 
Q 959 1119 1226 758 
Q 1494 397 1959 397 
Q 2419 397 2687 759 
Q 2956 1122 2956 1747 
Q 2956 2369 2687 2733 
Q 2419 3097 1959 3097 
z
M 1959 3584 
Q 2709 3584 3137 3096 
Q 3566 2609 3566 1747 
Q 3566 888 3137 398 
Q 2709 -91 1959 -91 
Q 1206 -91 779 398 
Q 353 888 353 1747 
Q 353 2609 779 3096 
Q 1206 3584 1959 3584 
z
" transform="scale(0.015625)"/>
       <path id="DejaVuSans-72" d="M 2631 2963 
Q 2534 3019 2420 3045 
Q 2306 3072 2169 3072 
Q 1681 3072 1420 2755 
Q 1159 2438 1159 1844 
L 1159 0 
L 581 0 
L 581 3500 
L 1159 3500 
L 1159 2956 
Q 1341 3275 1631 3429 
Q 1922 3584 2338 3584 
Q 2397 3584 2469 3576 
Q 2541 3569 2628 3553 
L 2631 2963 
z
" transform="scale(0.015625)"/>
      </defs>
      <use xlink:href="#DejaVuSans-63"/>
      <use xlink:href="#DejaVuSans-61" transform="translate(54.980469 0)"/>
      <use xlink:href="#DejaVuSans-6c" transform="translate(116.259766 0)"/>
      <use xlink:href="#DejaVuSans-63" transform="translate(144.042969 0)"/>
      <use xlink:href="#DejaVuSans-75" transform="translate(199.023438 0)"/>
      <use xlink:href="#DejaVuSans-6c" transform="translate(262.402344 0)"/>
      <use xlink:href="#DejaVuSans-61" transform="translate(290.185547 0)"/>
      <use xlink:href="#DejaVuSans-74" transform="translate(351.464844 0)"/>
      <use xlink:href="#DejaVuSans-6f" transform="translate(390.673828 0)"/>
      <use xlink:href="#DejaVuSans-72" transform="translate(451.855469 0)"/>
     </g>
    </g>
    <g clip-path="url(#p60645ff926)">
     <!-- W=9 -->
     <g transform="translate(715.056517 81.661832) scale(0.08 -0.08)">
      <defs>
       <path id="DejaVuSans-57" d="M 213 4666 
L 850 4666 
L 1831 722 
L 2809 4666 
L 3519 4666 
L 4500 722 
L 5478 4666 
L 6119 4666 
L 4947 0 
L 4153 0 
L 3169 4050 
L 2175 0 
L 1381 0 
L 213 4666 
z
" transform="scale(0.015625)"/>
       <path id="DejaVuSans-3d" d="M 678 2906 
L 4684 2906 
L 4684 2381 
L 678 2381 
L 678 2906 
z
M 678 1631 
L 4684 1631 
L 4684 1100 
L 678 1100 
L 678 1631 
z
" transform="scale(0.015625)"/>
       <path id="DejaVuSans-39" d="M 703 97 
L 703 672 
Q 941 559 1184 500 
Q 1428 441 1663 441 
Q 2288 441 2617 861 
Q 2947 1281 2994 2138 
Q 2813 1869 2534 1725 
Q 2256 1581 1919 1581 
Q 1219 1581 811 2004 
Q 403 2428 403 3163 
Q 403 3881 828 4315 
Q 1253 4750 1959 4750 
Q 2769 4750 3195 4129 
Q 3622 3509 3622 2328 
Q 3622 1225 3098 567 
Q 2575 -91 1691 -91 
Q 1453 -91 1209 -44 
Q 966 3 703 97 
z
M 1959 2075 
Q 2384 2075 2632 2365 
Q 2881 2656 2881 3163 
Q 2881 3666 2632 3958 
Q 2384 4250 1959 4250 
Q 1534 4250 1286 3958 
Q 1038 3666 1038 3163 
Q 1038 2656 1286 2365 
Q 1534 2075 1959 2075 
z
" transform="scale(0.015625)"/>
      </defs>
      <use xlink:href="#DejaVuSans-57"/>
      <use xlink:href="#DejaVuSans-3d" transform="translate(98.876953 0)"/>
      <use xlink:href="#DejaVuSans-39" transform="translate(182.666016 0)"/>
     </g>
    </g>
   </g>
   <g id="text_2">
    <g clip-path="url(#p60645ff926)">
     <!-- intermediate -->
     <g transform="translate(699.169642 310.720111) scale(0.08 -0.08)">
      <defs>
       <path id="DejaVuSans-69" d="M 603 3500 
L 1178 3500 
L 1178 0 
L 603 0 
L 603 3500 
z
M 603 4863 
L 1178 4863 
L 1178 4134 
L 603 4134 
L 603 4863 
z
" transform="scale(0.015625)"/>
       <path id="DejaVuSans-6e" d="M 3513 2113 
L 3513 0 
L 2938 0 
L 2938 2094 
Q 2938 2591 2744 2837 
Q 2550 3084 2163 3084 
Q 1697 3084 1428 2787 
Q 1159 2491 1159 1978 
L 1159 0 
L 581 0 
L 581 3500 
L 1159 3500 
L 1159 2956 
Q 1366 3272 1645 3428 
Q 1925 3584 2291 3584 
Q 2894 3584 3203 3211 
Q 3513 2838 3513 2113 
z
" transform="scale(0.015625)"/>
       <path id="DejaVuSans-65" d="M 3597 1894 
L 3597 1613 
L 953 1613 
Q 991 1019 1311 708 
Q 1631 397 2203 397 
Q 2534 397 2845 478 
Q 3156 559 3463 722 
L 3463 178 
Q 3153 47 2828 -22 
Q 2503 -91 2169 -91 
Q 1331 -91 842 396 
Q 353 884 353 1716 
Q 353 2575 817 3079 
Q 1281 3584 2069 3584 
Q 2775 3584 3186 3129 
Q 3597 2675 3597 1894 
z
M 3022 2063 
Q 3016 2534 2758 2815 
Q 2500 3097 2075 3097 
Q 1594 3097 1305 2825 
Q 1016 2553 972 2059 
L 3022 2063 
z
" transform="scale(0.015625)"/>
       <path id="DejaVuSans-6d" d="M 3328 2828 
Q 3544 3216 3844 3400 
Q 4144 3584 4550 3584 
Q 5097 3584 5394 3201 
Q 5691 2819 5691 2113 
L 5691 0 
L 5113 0 
L 5113 2094 
Q 5113 2597 4934 2840 
Q 4756 3084 4391 3084 
Q 3944 3084 3684 2787 
Q 3425 2491 3425 1978 
L 3425 0 
L 2847 0 
L 2847 2094 
Q 2847 2600 2669 2842 
Q 2491 3084 2119 3084 
Q 1678 3084 1418 2786 
Q 1159 2488 1159 1978 
L 1159 0 
L 581 0 
L 581 3500 
L 1159 3500 
L 1159 2956 
Q 1356 3278 1631 3431 
Q 1906 3584 2284 3584 
Q 2666 3584 2933 3390 
Q 3200 3197 3328 2828 
z
" transform="scale(0.015625)"/>
       <path id="DejaVuSans-64" d="M 2906 2969 
L 2906 4863 
L 3481 4863 
L 3481 0 
L 2906 0 
L 2906 525 
Q 2725 213 2448 61 
Q 2172 -91 1784 -91 
Q 1150 -91 751 415 
Q 353 922 353 1747 
Q 353 2572 751 3078 
Q 1150 3584 1784 3584 
Q 2172 3584 2448 3432 
Q 2725 3281 2906 2969 
z
M 947 1747 
Q 947 1113 1208 752 
Q 1469 391 1925 391 
Q 2381 391 2643 752 
Q 2906 1113 2906 1747 
Q 2906 2381 2643 2742 
Q 2381 3103 1925 3103 
Q 1469 3103 1208 2742 
Q 947 2381 947 1747 
z
" transform="scale(0.015625)"/>
      </defs>
      <use xlink:href="#DejaVuSans-69"/>
      <use xlink:href="#DejaVuSans-6e" transform="translate(27.783203 0)"/>
      <use xlink:href="#DejaVuSans-74" transform="translate(91.162109 0)"/>
      <use xlink:href="#DejaVuSans-65" transform="translate(130.371094 0)"/>
      <use xlink:href="#DejaVuSans-72" transform="translate(191.894531 0)"/>
      <use xlink:href="#DejaVuSans-6d" transform="translate(231.257812 0)"/>
      <use xlink:href="#DejaVuSans-65" transform="translate(328.669922 0)"/>
      <use xlink:href="#DejaVuSans-64" transform="translate(390.193359 0)"/>
      <use xlink:href="#DejaVuSans-69" transform="translate(453.669922 0)"/>
      <use xlink:href="#DejaVuSans-61" transform="translate(481.453125 0)"/>
      <use xlink:href="#DejaVuSans-74" transform="translate(542.732422 0)"/>
      <use xlink:href="#DejaVuSans-65" transform="translate(581.941406 0)"/>
     </g>
    </g>
    <g clip-path="url(#p60645ff926)">
     <!-- W=9 -->
     <g transform="translate(715.056517 319.678361) scale(0.08 -0.08)">
      <use xlink:href="#DejaVuSans-57"/>
      <use xlink:href="#DejaVuSans-3d" transform="translate(98.876953 0)"/>
      <use xlink:href="#DejaVuSans-39" transform="translate(182.666016 0)"/>
     </g>
    </g>
   </g>
   <g id="text_3">
    <g clip-path="url(#p60645ff926)">
     <!-- alu_tile_noc_c -->
     <g transform="translate(97.228053 548.625389) scale(0.08 -0.08)">
      <defs>
       <path id="DejaVuSans-5f" d="M 3263 -1063 
L 3263 -1509 
L -63 -1509 
L -63 -1063 
L 3263 -1063 
z
" transform="scale(0.015625)"/>
      </defs>
      <use xlink:href="#DejaVuSans-61"/>
      <use xlink:href="#DejaVuSans-6c" transform="translate(61.279297 0)"/>
      <use xlink:href="#DejaVuSans-75" transform="translate(89.0625 0)"/>
      <use xlink:href="#DejaVuSans-5f" transform="translate(152.441406 0)"/>
      <use xlink:href="#DejaVuSans-74" transform="translate(202.441406 0)"/>
      <use xlink:href="#DejaVuSans-69" transform="translate(241.650391 0)"/>
      <use xlink:href="#DejaVuSans-6c" transform="translate(269.433594 0)"/>
      <use xlink:href="#DejaVuSans-65" transform="translate(297.216797 0)"/>
      <use xlink:href="#DejaVuSans-5f" transform="translate(358.740234 0)"/>
      <use xlink:href="#DejaVuSans-6e" transform="translate(408.740234 0)"/>
      <use xlink:href="#DejaVuSans-6f" transform="translate(472.119141 0)"/>
      <use xlink:href="#DejaVuSans-63" transform="translate(533.300781 0)"/>
      <use xlink:href="#DejaVuSans-5f" transform="translate(588.28125 0)"/>
      <use xlink:href="#DejaVuSans-63" transform="translate(638.28125 0)"/>
     </g>
    </g>
    <g clip-path="url(#p60645ff926)">
     <!-- W=1 -->
     <g transform="translate(115.106803 557.806139) scale(0.08 -0.08)">
      <defs>
       <path id="DejaVuSans-31" d="M 794 531 
L 1825 531 
L 1825 4091 
L 703 3866 
L 703 4441 
L 1819 4666 
L 2450 4666 
L 2450 531 
L 3481 531 
L 3481 0 
L 794 0 
L 794 531 
z
" transform="scale(0.015625)"/>
      </defs>
      <use xlink:href="#DejaVuSans-57"/>
      <use xlink:href="#DejaVuSans-3d" transform="translate(98.876953 0)"/>
      <use xlink:href="#DejaVuSans-31" transform="translate(182.666016 0)"/>
     </g>
    </g>
   </g>
   <g id="text_4">
    <g clip-path="url(#p60645ff926)">
     <!-- terminate -->
     <g transform="translate(105.331803 786.753168) scale(0.08 -0.08)">
      <use xlink:href="#DejaVuSans-74"/>
      <use xlink:href="#DejaVuSans-65" transform="translate(39.208984 0)"/>
      <use xlink:href="#DejaVuSans-72" transform="translate(100.732422 0)"/>
      <use xlink:href="#DejaVuSans-6d" transform="translate(140.095703 0)"/>
      <use xlink:href="#DejaVuSans-69" transform="translate(237.507812 0)"/>
      <use xlink:href="#DejaVuSans-6e" transform="translate(265.291016 0)"/>
      <use xlink:href="#DejaVuSans-61" transform="translate(328.669922 0)"/>
      <use xlink:href="#DejaVuSans-74" transform="translate(389.949219 0)"/>
      <use xlink:href="#DejaVuSans-65" transform="translate(429.158203 0)"/>
     </g>
    </g>
    <g clip-path="url(#p60645ff926)">
     <!-- W=1 -->
     <g transform="translate(115.106803 795.711418) scale(0.08 -0.08)">
      <use xlink:href="#DejaVuSans-57"/>
      <use xlink:href="#DejaVuSans-3d" transform="translate(98.876953 0)"/>
      <use xlink:href="#DejaVuSans-31" transform="translate(182.666016 0)"/>
     </g>
    </g>
   </g>
   <g id="text_5">
    <g clip-path="url(#p60645ff926)">
     <!-- alu_tile_noc_a -->
     <g transform="translate(244.320132 548.625389) scale(0.08 -0.08)">
      <use xlink:href="#DejaVuSans-61"/>
      <use xlink:href="#DejaVuSans-6c" transform="translate(61.279297 0)"/>
      <use xlink:href="#DejaVuSans-75" transform="translate(89.0625 0)"/>
      <use xlink:href="#DejaVuSans-5f" transform="translate(152.441406 0)"/>
      <use xlink:href="#DejaVuSans-74" transform="translate(202.441406 0)"/>
      <use xlink:href="#DejaVuSans-69" transform="translate(241.650391 0)"/>
      <use xlink:href="#DejaVuSans-6c" transform="translate(269.433594 0)"/>
      <use xlink:href="#DejaVuSans-65" transform="translate(297.216797 0)"/>
      <use xlink:href="#DejaVuSans-5f" transform="translate(358.740234 0)"/>
      <use xlink:href="#DejaVuSans-6e" transform="translate(408.740234 0)"/>
      <use xlink:href="#DejaVuSans-6f" transform="translate(472.119141 0)"/>
      <use xlink:href="#DejaVuSans-63" transform="translate(533.300781 0)"/>
      <use xlink:href="#DejaVuSans-5f" transform="translate(588.28125 0)"/>
      <use xlink:href="#DejaVuSans-61" transform="translate(638.28125 0)"/>
     </g>
    </g>
    <g clip-path="url(#p60645ff926)">
     <!-- W=1 -->
     <g transform="translate(262.450757 557.806139) scale(0.08 -0.08)">
      <use xlink:href="#DejaVuSans-57"/>
      <use xlink:href="#DejaVuSans-3d" transform="translate(98.876953 0)"/>
      <use xlink:href="#DejaVuSans-31" transform="translate(182.666016 0)"/>
     </g>
    </g>
   </g>
   <g id="text_6">
    <g clip-path="url(#p60645ff926)">
     <!-- terminate -->
     <g transform="translate(252.675757 786.753168) scale(0.08 -0.08)">
      <use xlink:href="#DejaVuSans-74"/>
      <use xlink:href="#DejaVuSans-65" transform="translate(39.208984 0)"/>
      <use xlink:href="#DejaVuSans-72" transform="translate(100.732422 0)"/>
      <use xlink:href="#DejaVuSans-6d" transform="translate(140.095703 0)"/>
      <use xlink:href="#DejaVuSans-69" transform="translate(237.507812 0)"/>
      <use xlink:href="#DejaVuSans-6e" transform="translate(265.291016 0)"/>
      <use xlink:href="#DejaVuSans-61" transform="translate(328.669922 0)"/>
      <use xlink:href="#DejaVuSans-74" transform="translate(389.949219 0)"/>
      <use xlink:href="#DejaVuSans-65" transform="translate(429.158203 0)"/>
     </g>
    </g>
    <g clip-path="url(#p60645ff926)">
     <!-- W=1 -->
     <g transform="translate(262.450757 795.711418) scale(0.08 -0.08)">
      <use xlink:href="#DejaVuSans-57"/>
      <use xlink:href="#DejaVuSans-3d" transform="translate(98.876953 0)"/>
      <use xlink:href="#DejaVuSans-31" transform="translate(182.666016 0)"/>
     </g>
    </g>
   </g>
   <g id="text_7">
    <g clip-path="url(#p60645ff926)">
     <!-- alu_tile_noc_c8 -->
     <g transform="translate(393.903063 548.625389) scale(0.08 -0.08)">
      <defs>
       <path id="DejaVuSans-38" d="M 2034 2216 
Q 1584 2216 1326 1975 
Q 1069 1734 1069 1313 
Q 1069 891 1326 650 
Q 1584 409 2034 409 
Q 2484 409 2743 651 
Q 3003 894 3003 1313 
Q 3003 1734 2745 1975 
Q 2488 2216 2034 2216 
z
M 1403 2484 
Q 997 2584 770 2862 
Q 544 3141 544 3541 
Q 544 4100 942 4425 
Q 1341 4750 2034 4750 
Q 2731 4750 3128 4425 
Q 3525 4100 3525 3541 
Q 3525 3141 3298 2862 
Q 3072 2584 2669 2484 
Q 3125 2378 3379 2068 
Q 3634 1759 3634 1313 
Q 3634 634 3220 271 
Q 2806 -91 2034 -91 
Q 1263 -91 848 271 
Q 434 634 434 1313 
Q 434 1759 690 2068 
Q 947 2378 1403 2484 
z
M 1172 3481 
Q 1172 3119 1398 2916 
Q 1625 2713 2034 2713 
Q 2441 2713 2670 2916 
Q 2900 3119 2900 3481 
Q 2900 3844 2670 4047 
Q 2441 4250 2034 4250 
Q 1625 4250 1398 4047 
Q 1172 3844 1172 3481 
z
" transform="scale(0.015625)"/>
      </defs>
      <use xlink:href="#DejaVuSans-61"/>
      <use xlink:href="#DejaVuSans-6c" transform="translate(61.279297 0)"/>
      <use xlink:href="#DejaVuSans-75" transform="translate(89.0625 0)"/>
      <use xlink:href="#DejaVuSans-5f" transform="translate(152.441406 0)"/>
      <use xlink:href="#DejaVuSans-74" transform="translate(202.441406 0)"/>
      <use xlink:href="#DejaVuSans-69" transform="translate(241.650391 0)"/>
      <use xlink:href="#DejaVuSans-6c" transform="translate(269.433594 0)"/>
      <use xlink:href="#DejaVuSans-65" transform="translate(297.216797 0)"/>
      <use xlink:href="#DejaVuSans-5f" transform="translate(358.740234 0)"/>
      <use xlink:href="#DejaVuSans-6e" transform="translate(408.740234 0)"/>
      <use xlink:href="#DejaVuSans-6f" transform="translate(472.119141 0)"/>
      <use xlink:href="#DejaVuSans-63" transform="translate(533.300781 0)"/>
      <use xlink:href="#DejaVuSans-5f" transform="translate(588.28125 0)"/>
      <use xlink:href="#DejaVuSans-63" transform="translate(638.28125 0)"/>
      <use xlink:href="#DejaVuSans-38" transform="translate(693.261719 0)"/>
     </g>
    </g>
    <g clip-path="url(#p60645ff926)">
     <!-- W=1 -->
     <g transform="translate(414.326813 557.806139) scale(0.08 -0.08)">
      <use xlink:href="#DejaVuSans-57"/>
      <use xlink:href="#DejaVuSans-3d" transform="translate(98.876953 0)"/>
      <use xlink:href="#DejaVuSans-31" transform="translate(182.666016 0)"/>
     </g>
    </g>
   </g>
   <g id="text_8">
    <g clip-path="url(#p60645ff926)">
     <!-- terminate -->
     <g transform="translate(404.551813 786.753168) scale(0.08 -0.08)">
      <use xlink:href="#DejaVuSans-74"/>
      <use xlink:href="#DejaVuSans-65" transform="translate(39.208984 0)"/>
      <use xlink:href="#DejaVuSans-72" transform="translate(100.732422 0)"/>
      <use xlink:href="#DejaVuSans-6d" transform="translate(140.095703 0)"/>
      <use xlink:href="#DejaVuSans-69" transform="translate(237.507812 0)"/>
      <use xlink:href="#DejaVuSans-6e" transform="translate(265.291016 0)"/>
      <use xlink:href="#DejaVuSans-61" transform="translate(328.669922 0)"/>
      <use xlink:href="#DejaVuSans-74" transform="translate(389.949219 0)"/>
      <use xlink:href="#DejaVuSans-65" transform="translate(429.158203 0)"/>
     </g>
    </g>
    <g clip-path="url(#p60645ff926)">
     <!-- W=1 -->
     <g transform="translate(414.326813 795.711418) scale(0.08 -0.08)">
      <use xlink:href="#DejaVuSans-57"/>
      <use xlink:href="#DejaVuSans-3d" transform="translate(98.876953 0)"/>
      <use xlink:href="#DejaVuSans-31" transform="translate(182.666016 0)"/>
     </g>
    </g>
   </g>
   <g id="text_9">
    <g clip-path="url(#p60645ff926)">
     <!-- alu_tile_noc_9 -->
     <g transform="translate(548.734097 548.625389) scale(0.08 -0.08)">
      <use xlink:href="#DejaVuSans-61"/>
      <use xlink:href="#DejaVuSans-6c" transform="translate(61.279297 0)"/>
      <use xlink:href="#DejaVuSans-75" transform="translate(89.0625 0)"/>
      <use xlink:href="#DejaVuSans-5f" transform="translate(152.441406 0)"/>
      <use xlink:href="#DejaVuSans-74" transform="translate(202.441406 0)"/>
      <use xlink:href="#DejaVuSans-69" transform="translate(241.650391 0)"/>
      <use xlink:href="#DejaVuSans-6c" transform="translate(269.433594 0)"/>
      <use xlink:href="#DejaVuSans-65" transform="translate(297.216797 0)"/>
      <use xlink:href="#DejaVuSans-5f" transform="translate(358.740234 0)"/>
      <use xlink:href="#DejaVuSans-6e" transform="translate(408.740234 0)"/>
      <use xlink:href="#DejaVuSans-6f" transform="translate(472.119141 0)"/>
      <use xlink:href="#DejaVuSans-63" transform="translate(533.300781 0)"/>
      <use xlink:href="#DejaVuSans-5f" transform="translate(588.28125 0)"/>
      <use xlink:href="#DejaVuSans-39" transform="translate(638.28125 0)"/>
     </g>
    </g>
    <g clip-path="url(#p60645ff926)">
     <!-- W=1 -->
     <g transform="translate(566.958472 557.806139) scale(0.08 -0.08)">
      <use xlink:href="#DejaVuSans-57"/>
      <use xlink:href="#DejaVuSans-3d" transform="translate(98.876953 0)"/>
      <use xlink:href="#DejaVuSans-31" transform="translate(182.666016 0)"/>
     </g>
    </g>
   </g>
   <g id="text_10">
    <g clip-path="url(#p60645ff926)">
     <!-- terminate -->
     <g transform="translate(557.183472 786.753168) scale(0.08 -0.08)">
      <use xlink:href="#DejaVuSans-74"/>
      <use xlink:href="#DejaVuSans-65" transform="translate(39.208984 0)"/>
      <use xlink:href="#DejaVuSans-72" transform="translate(100.732422 0)"/>
      <use xlink:href="#DejaVuSans-6d" transform="translate(140.095703 0)"/>
      <use xlink:href="#DejaVuSans-69" transform="translate(237.507812 0)"/>
      <use xlink:href="#DejaVuSans-6e" transform="translate(265.291016 0)"/>
      <use xlink:href="#DejaVuSans-61" transform="translate(328.669922 0)"/>
      <use xlink:href="#DejaVuSans-74" transform="translate(389.949219 0)"/>
      <use xlink:href="#DejaVuSans-65" transform="translate(429.158203 0)"/>
     </g>
    </g>
    <g clip-path="url(#p60645ff926)">
     <!-- W=1 -->
     <g transform="translate(566.958472 795.711418) scale(0.08 -0.08)">
      <use xlink:href="#DejaVuSans-57"/>
      <use xlink:href="#DejaVuSans-3d" transform="translate(98.876953 0)"/>
      <use xlink:href="#DejaVuSans-31" transform="translate(182.666016 0)"/>
     </g>
    </g>
   </g>
   <g id="text_11">
    <g clip-path="url(#p60645ff926)">
     <!-- alu_tile_noc_8 -->
     <g transform="translate(696.832142 548.625389) scale(0.08 -0.08)">
      <use xlink:href="#DejaVuSans-61"/>
      <use xlink:href="#DejaVuSans-6c" transform="translate(61.279297 0)"/>
      <use xlink:href="#DejaVuSans-75" transform="translate(89.0625 0)"/>
      <use xlink:href="#DejaVuSans-5f" transform="translate(152.441406 0)"/>
      <use xlink:href="#DejaVuSans-74" transform="translate(202.441406 0)"/>
      <use xlink:href="#DejaVuSans-69" transform="translate(241.650391 0)"/>
      <use xlink:href="#DejaVuSans-6c" transform="translate(269.433594 0)"/>
      <use xlink:href="#DejaVuSans-65" transform="translate(297.216797 0)"/>
      <use xlink:href="#DejaVuSans-5f" transform="translate(358.740234 0)"/>
      <use xlink:href="#DejaVuSans-6e" transform="translate(408.740234 0)"/>
      <use xlink:href="#DejaVuSans-6f" transform="translate(472.119141 0)"/>
      <use xlink:href="#DejaVuSans-63" transform="translate(533.300781 0)"/>
      <use xlink:href="#DejaVuSans-5f" transform="translate(588.28125 0)"/>
      <use xlink:href="#DejaVuSans-38" transform="translate(638.28125 0)"/>
     </g>
    </g>
    <g clip-path="url(#p60645ff926)">
     <!-- W=1 -->
     <g transform="translate(715.056517 557.806139) scale(0.08 -0.08)">
      <use xlink:href="#DejaVuSans-57"/>
      <use xlink:href="#DejaVuSans-3d" transform="translate(98.876953 0)"/>
      <use xlink:href="#DejaVuSans-31" transform="translate(182.666016 0)"/>
     </g>
    </g>
   </g>
   <g id="text_12">
    <g clip-path="url(#p60645ff926)">
     <!-- terminate -->
     <g transform="translate(705.281517 786.753168) scale(0.08 -0.08)">
      <use xlink:href="#DejaVuSans-74"/>
      <use xlink:href="#DejaVuSans-65" transform="translate(39.208984 0)"/>
      <use xlink:href="#DejaVuSans-72" transform="translate(100.732422 0)"/>
      <use xlink:href="#DejaVuSans-6d" transform="translate(140.095703 0)"/>
      <use xlink:href="#DejaVuSans-69" transform="translate(237.507812 0)"/>
      <use xlink:href="#DejaVuSans-6e" transform="translate(265.291016 0)"/>
      <use xlink:href="#DejaVuSans-61" transform="translate(328.669922 0)"/>
      <use xlink:href="#DejaVuSans-74" transform="translate(389.949219 0)"/>
      <use xlink:href="#DejaVuSans-65" transform="translate(429.158203 0)"/>
     </g>
    </g>
    <g clip-path="url(#p60645ff926)">
     <!-- W=1 -->
     <g transform="translate(715.056517 795.711418) scale(0.08 -0.08)">
      <use xlink:href="#DejaVuSans-57"/>
      <use xlink:href="#DejaVuSans-3d" transform="translate(98.876953 0)"/>
      <use xlink:href="#DejaVuSans-31" transform="translate(182.666016 0)"/>
     </g>
    </g>
   </g>
   <g id="text_13">
    <g clip-path="url(#p60645ff926)">
     <!-- alu_tile_noc_3 -->
     <g transform="translate(844.937744 548.625389) scale(0.08 -0.08)">
      <defs>
       <path id="DejaVuSans-33" d="M 2597 2516 
Q 3050 2419 3304 2112 
Q 3559 1806 3559 1356 
Q 3559 666 3084 287 
Q 2609 -91 1734 -91 
Q 1441 -91 1130 -33 
Q 819 25 488 141 
L 488 750 
Q 750 597 1062 519 
Q 1375 441 1716 441 
Q 2309 441 2620 675 
Q 2931 909 2931 1356 
Q 2931 1769 2642 2001 
Q 2353 2234 1838 2234 
L 1294 2234 
L 1294 2753 
L 1863 2753 
Q 2328 2753 2575 2939 
Q 2822 3125 2822 3475 
Q 2822 3834 2567 4026 
Q 2313 4219 1838 4219 
Q 1578 4219 1281 4162 
Q 984 4106 628 3988 
L 628 4550 
Q 988 4650 1302 4700 
Q 1616 4750 1894 4750 
Q 2613 4750 3031 4423 
Q 3450 4097 3450 3541 
Q 3450 3153 3228 2886 
Q 3006 2619 2597 2516 
z
" transform="scale(0.015625)"/>
      </defs>
      <use xlink:href="#DejaVuSans-61"/>
      <use xlink:href="#DejaVuSans-6c" transform="translate(61.279297 0)"/>
      <use xlink:href="#DejaVuSans-75" transform="translate(89.0625 0)"/>
      <use xlink:href="#DejaVuSans-5f" transform="translate(152.441406 0)"/>
      <use xlink:href="#DejaVuSans-74" transform="translate(202.441406 0)"/>
      <use xlink:href="#DejaVuSans-69" transform="translate(241.650391 0)"/>
      <use xlink:href="#DejaVuSans-6c" transform="translate(269.433594 0)"/>
      <use xlink:href="#DejaVuSans-65" transform="translate(297.216797 0)"/>
      <use xlink:href="#DejaVuSans-5f" transform="translate(358.740234 0)"/>
      <use xlink:href="#DejaVuSans-6e" transform="translate(408.740234 0)"/>
      <use xlink:href="#DejaVuSans-6f" transform="translate(472.119141 0)"/>
      <use xlink:href="#DejaVuSans-63" transform="translate(533.300781 0)"/>
      <use xlink:href="#DejaVuSans-5f" transform="translate(588.28125 0)"/>
      <use xlink:href="#DejaVuSans-33" transform="translate(638.28125 0)"/>
     </g>
    </g>
    <g clip-path="url(#p60645ff926)">
     <!-- W=1 -->
     <g transform="translate(863.162119 557.806139) scale(0.08 -0.08)">
      <use xlink:href="#DejaVuSans-57"/>
      <use xlink:href="#DejaVuSans-3d" transform="translate(98.876953 0)"/>
      <use xlink:href="#DejaVuSans-31" transform="translate(182.666016 0)"/>
     </g>
    </g>
   </g>
   <g id="text_14">
    <g clip-path="url(#p60645ff926)">
     <!-- terminate -->
     <g transform="translate(853.387119 786.753168) scale(0.08 -0.08)">
      <use xlink:href="#DejaVuSans-74"/>
      <use xlink:href="#DejaVuSans-65" transform="translate(39.208984 0)"/>
      <use xlink:href="#DejaVuSans-72" transform="translate(100.732422 0)"/>
      <use xlink:href="#DejaVuSans-6d" transform="translate(140.095703 0)"/>
      <use xlink:href="#DejaVuSans-69" transform="translate(237.507812 0)"/>
      <use xlink:href="#DejaVuSans-6e" transform="translate(265.291016 0)"/>
      <use xlink:href="#DejaVuSans-61" transform="translate(328.669922 0)"/>
      <use xlink:href="#DejaVuSans-74" transform="translate(389.949219 0)"/>
      <use xlink:href="#DejaVuSans-65" transform="translate(429.158203 0)"/>
     </g>
    </g>
    <g clip-path="url(#p60645ff926)">
     <!-- W=1 -->
     <g transform="translate(863.162119 795.711418) scale(0.08 -0.08)">
      <use xlink:href="#DejaVuSans-57"/>
      <use xlink:href="#DejaVuSans-3d" transform="translate(98.876953 0)"/>
      <use xlink:href="#DejaVuSans-31" transform="translate(182.666016 0)"/>
     </g>
    </g>
   </g>
   <g id="text_15">
    <g clip-path="url(#p60645ff926)">
     <!-- alu_tile_noc_d -->
     <g transform="translate(993.041414 548.625389) scale(0.08 -0.08)">
      <use xlink:href="#DejaVuSans-61"/>
      <use xlink:href="#DejaVuSans-6c" transform="translate(61.279297 0)"/>
      <use xlink:href="#DejaVuSans-75" transform="translate(89.0625 0)"/>
      <use xlink:href="#DejaVuSans-5f" transform="translate(152.441406 0)"/>
      <use xlink:href="#DejaVuSans-74" transform="translate(202.441406 0)"/>
      <use xlink:href="#DejaVuSans-69" transform="translate(241.650391 0)"/>
      <use xlink:href="#DejaVuSans-6c" transform="translate(269.433594 0)"/>
      <use xlink:href="#DejaVuSans-65" transform="translate(297.216797 0)"/>
      <use xlink:href="#DejaVuSans-5f" transform="translate(358.740234 0)"/>
      <use xlink:href="#DejaVuSans-6e" transform="translate(408.740234 0)"/>
      <use xlink:href="#DejaVuSans-6f" transform="translate(472.119141 0)"/>
      <use xlink:href="#DejaVuSans-63" transform="translate(533.300781 0)"/>
      <use xlink:href="#DejaVuSans-5f" transform="translate(588.28125 0)"/>
      <use xlink:href="#DejaVuSans-64" transform="translate(638.28125 0)"/>
     </g>
    </g>
    <g clip-path="url(#p60645ff926)">
     <!-- W=1 -->
     <g transform="translate(1011.260164 557.806139) scale(0.08 -0.08)">
      <use xlink:href="#DejaVuSans-57"/>
      <use xlink:href="#DejaVuSans-3d" transform="translate(98.876953 0)"/>
      <use xlink:href="#DejaVuSans-31" transform="translate(182.666016 0)"/>
     </g>
    </g>
   </g>
   <g id="text_16">
    <g clip-path="url(#p60645ff926)">
     <!-- terminate -->
     <g transform="translate(1001.485164 786.753168) scale(0.08 -0.08)">
      <use xlink:href="#DejaVuSans-74"/>
      <use xlink:href="#DejaVuSans-65" transform="translate(39.208984 0)"/>
      <use xlink:href="#DejaVuSans-72" transform="translate(100.732422 0)"/>
      <use xlink:href="#DejaVuSans-6d" transform="translate(140.095703 0)"/>
      <use xlink:href="#DejaVuSans-69" transform="translate(237.507812 0)"/>
      <use xlink:href="#DejaVuSans-6e" transform="translate(265.291016 0)"/>
      <use xlink:href="#DejaVuSans-61" transform="translate(328.669922 0)"/>
      <use xlink:href="#DejaVuSans-74" transform="translate(389.949219 0)"/>
      <use xlink:href="#DejaVuSans-65" transform="translate(429.158203 0)"/>
     </g>
    </g>
    <g clip-path="url(#p60645ff926)">
     <!-- W=1 -->
     <g transform="translate(1011.260164 795.711418) scale(0.08 -0.08)">
      <use xlink:href="#DejaVuSans-57"/>
      <use xlink:href="#DejaVuSans-3d" transform="translate(98.876953 0)"/>
      <use xlink:href="#DejaVuSans-31" transform="translate(182.666016 0)"/>
     </g>
    </g>
   </g>
   <g id="text_17">
    <g clip-path="url(#p60645ff926)">
     <!-- alu_tile_noc_5 -->
     <g transform="translate(1141.133834 548.625389) scale(0.08 -0.08)">
      <defs>
       <path id="DejaVuSans-35" d="M 691 4666 
L 3169 4666 
L 3169 4134 
L 1269 4134 
L 1269 2991 
Q 1406 3038 1543 3061 
Q 1681 3084 1819 3084 
Q 2600 3084 3056 2656 
Q 3513 2228 3513 1497 
Q 3513 744 3044 326 
Q 2575 -91 1722 -91 
Q 1428 -91 1123 -41 
Q 819 9 494 109 
L 494 744 
Q 775 591 1075 516 
Q 1375 441 1709 441 
Q 2250 441 2565 725 
Q 2881 1009 2881 1497 
Q 2881 1984 2565 2268 
Q 2250 2553 1709 2553 
Q 1456 2553 1204 2497 
Q 953 2441 691 2322 
L 691 4666 
z
" transform="scale(0.015625)"/>
      </defs>
      <use xlink:href="#DejaVuSans-61"/>
      <use xlink:href="#DejaVuSans-6c" transform="translate(61.279297 0)"/>
      <use xlink:href="#DejaVuSans-75" transform="translate(89.0625 0)"/>
      <use xlink:href="#DejaVuSans-5f" transform="translate(152.441406 0)"/>
      <use xlink:href="#DejaVuSans-74" transform="translate(202.441406 0)"/>
      <use xlink:href="#DejaVuSans-69" transform="translate(241.650391 0)"/>
      <use xlink:href="#DejaVuSans-6c" transform="translate(269.433594 0)"/>
      <use xlink:href="#DejaVuSans-65" transform="translate(297.216797 0)"/>
      <use xlink:href="#DejaVuSans-5f" transform="translate(358.740234 0)"/>
      <use xlink:href="#DejaVuSans-6e" transform="translate(408.740234 0)"/>
      <use xlink:href="#DejaVuSans-6f" transform="translate(472.119141 0)"/>
      <use xlink:href="#DejaVuSans-63" transform="translate(533.300781 0)"/>
      <use xlink:href="#DejaVuSans-5f" transform="translate(588.28125 0)"/>
      <use xlink:href="#DejaVuSans-35" transform="translate(638.28125 0)"/>
     </g>
    </g>
    <g clip-path="url(#p60645ff926)">
     <!-- W=1 -->
     <g transform="translate(1159.358209 557.806139) scale(0.08 -0.08)">
      <use xlink:href="#DejaVuSans-57"/>
      <use xlink:href="#DejaVuSans-3d" transform="translate(98.876953 0)"/>
      <use xlink:href="#DejaVuSans-31" transform="translate(182.666016 0)"/>
     </g>
    </g>
   </g>
   <g id="text_18">
    <g clip-path="url(#p60645ff926)">
     <!-- terminate -->
     <g transform="translate(1149.583209 786.753168) scale(0.08 -0.08)">
      <use xlink:href="#DejaVuSans-74"/>
      <use xlink:href="#DejaVuSans-65" transform="translate(39.208984 0)"/>
      <use xlink:href="#DejaVuSans-72" transform="translate(100.732422 0)"/>
      <use xlink:href="#DejaVuSans-6d" transform="translate(140.095703 0)"/>
      <use xlink:href="#DejaVuSans-69" transform="translate(237.507812 0)"/>
      <use xlink:href="#DejaVuSans-6e" transform="translate(265.291016 0)"/>
      <use xlink:href="#DejaVuSans-61" transform="translate(328.669922 0)"/>
      <use xlink:href="#DejaVuSans-74" transform="translate(389.949219 0)"/>
      <use xlink:href="#DejaVuSans-65" transform="translate(429.158203 0)"/>
     </g>
    </g>
    <g clip-path="url(#p60645ff926)">
     <!-- W=1 -->
     <g transform="translate(1159.358209 795.711418) scale(0.08 -0.08)">
      <use xlink:href="#DejaVuSans-57"/>
      <use xlink:href="#DejaVuSans-3d" transform="translate(98.876953 0)"/>
      <use xlink:href="#DejaVuSans-31" transform="translate(182.666016 0)"/>
     </g>
    </g>
   </g>
   <g id="text_19">
    <g clip-path="url(#p60645ff926)">
     <!-- alu_tile_noc_f -->
     <g transform="translate(1288.101947 548.625389) scale(0.08 -0.08)">
      <defs>
       <path id="DejaVuSans-66" d="M 2375 4863 
L 2375 4384 
L 1825 4384 
Q 1516 4384 1395 4259 
Q 1275 4134 1275 3809 
L 1275 3500 
L 2222 3500 
L 2222 3053 
L 1275 3053 
L 1275 0 
L 697 0 
L 697 3053 
L 147 3053 
L 147 3500 
L 697 3500 
L 697 3744 
Q 697 4328 969 4595 
Q 1241 4863 1831 4863 
L 2375 4863 
z
" transform="scale(0.015625)"/>
      </defs>
      <use xlink:href="#DejaVuSans-61"/>
      <use xlink:href="#DejaVuSans-6c" transform="translate(61.279297 0)"/>
      <use xlink:href="#DejaVuSans-75" transform="translate(89.0625 0)"/>
      <use xlink:href="#DejaVuSans-5f" transform="translate(152.441406 0)"/>
      <use xlink:href="#DejaVuSans-74" transform="translate(202.441406 0)"/>
      <use xlink:href="#DejaVuSans-69" transform="translate(241.650391 0)"/>
      <use xlink:href="#DejaVuSans-6c" transform="translate(269.433594 0)"/>
      <use xlink:href="#DejaVuSans-65" transform="translate(297.216797 0)"/>
      <use xlink:href="#DejaVuSans-5f" transform="translate(358.740234 0)"/>
      <use xlink:href="#DejaVuSans-6e" transform="translate(408.740234 0)"/>
      <use xlink:href="#DejaVuSans-6f" transform="translate(472.119141 0)"/>
      <use xlink:href="#DejaVuSans-63" transform="translate(533.300781 0)"/>
      <use xlink:href="#DejaVuSans-5f" transform="translate(588.28125 0)"/>
      <use xlink:href="#DejaVuSans-66" transform="translate(638.28125 0)"/>
     </g>
    </g>
    <g clip-path="url(#p60645ff926)">
     <!-- W=1 -->
     <g transform="translate(1305.189447 557.806139) scale(0.08 -0.08)">
      <use xlink:href="#DejaVuSans-57"/>
      <use xlink:href="#DejaVuSans-3d" transform="translate(98.876953 0)"/>
      <use xlink:href="#DejaVuSans-31" transform="translate(182.666016 0)"/>
     </g>
    </g>
   </g>
   <g id="text_20">
    <g clip-path="url(#p60645ff926)">
     <!-- terminate -->
     <g transform="translate(1295.414447 786.753168) scale(0.08 -0.08)">
      <use xlink:href="#DejaVuSans-74"/>
      <use xlink:href="#DejaVuSans-65" transform="translate(39.208984 0)"/>
      <use xlink:href="#DejaVuSans-72" transform="translate(100.732422 0)"/>
      <use xlink:href="#DejaVuSans-6d" transform="translate(140.095703 0)"/>
      <use xlink:href="#DejaVuSans-69" transform="translate(237.507812 0)"/>
      <use xlink:href="#DejaVuSans-6e" transform="translate(265.291016 0)"/>
      <use xlink:href="#DejaVuSans-61" transform="translate(328.669922 0)"/>
      <use xlink:href="#DejaVuSans-74" transform="translate(389.949219 0)"/>
      <use xlink:href="#DejaVuSans-65" transform="translate(429.158203 0)"/>
     </g>
    </g>
    <g clip-path="url(#p60645ff926)">
     <!-- W=1 -->
     <g transform="translate(1305.189447 795.711418) scale(0.08 -0.08)">
      <use xlink:href="#DejaVuSans-57"/>
      <use xlink:href="#DejaVuSans-3d" transform="translate(98.876953 0)"/>
      <use xlink:href="#DejaVuSans-31" transform="translate(182.666016 0)"/>
     </g>
    </g>
   </g>
  </g>
 </g>
 <defs>
  <clipPath id="p60645ff926">
   <rect x="0" y="0" width="1440" height="864"/>
  </clipPath>
 </defs>
</svg>
